HIERARCHY
ROOT newVegas:Hips
{
	OFFSET 0.000000 96.479958 0.000000
	CHANNELS 6 Xposition Yposition Zposition Xrotation Yrotation Zrotation
	JOINT newVegas:Pelvis
	{
		OFFSET 0.000000 0.000000 0.000000
		CHANNELS 3 Xrotation Yrotation Zrotation
		JOINT newVegas:LeftUpLeg
		{
			OFFSET 18.735201 -5.666702 -4.541200
			CHANNELS 3 Xrotation Yrotation Zrotation
			JOINT newVegas:LeftLeg
			{
				OFFSET -0.021200 -31.938179 0.493100
				CHANNELS 3 Xrotation Yrotation Zrotation
				JOINT newVegas:LeftFoot
				{
					OFFSET 0.021200 -31.938179 -4.336299
					CHANNELS 3 Xrotation Yrotation Zrotation
					JOINT newVegas:LeftToeBase
					{
						OFFSET 0.943001 -26.722000 15.023500
						CHANNELS 3 Xrotation Yrotation Zrotation
						End Site
						{
							OFFSET 0.000000 30.670183 0.000000
						}
					}
				}
				JOINT newVegas:Left_PantLeg
				{
					OFFSET 0.663870 -9.044666 -1.108900
					CHANNELS 3 Xrotation Yrotation Zrotation
					End Site
					{
						OFFSET 1.415995 20.635357 0.000000
					}
				}
			}
		}
		JOINT newVegas:RightUpLeg
		{
			OFFSET -18.735201 -5.666702 -4.541200
			CHANNELS 3 Xrotation Yrotation Zrotation
			JOINT newVegas:RightLeg
			{
				OFFSET 0.018946 -31.938133 0.493100
				CHANNELS 3 Xrotation Yrotation Zrotation
				JOINT newVegas:RightFoot
				{
					OFFSET -0.018946 -31.938126 -4.336299
					CHANNELS 3 Xrotation Yrotation Zrotation
					JOINT newVegas:RightToeBase
					{
						OFFSET -0.943001 -26.722004 15.023500
						CHANNELS 3 Xrotation Yrotation Zrotation
						End Site
						{
							OFFSET 0.000000 30.670187 0.000000
						}
					}
				}
				JOINT newVegas:Right_PantLeg
				{
					OFFSET -0.661674 -9.044716 -1.108900
					CHANNELS 3 Xrotation Yrotation Zrotation
					End Site
					{
						OFFSET -1.415958 20.635269 0.000000
					}
				}
			}
		}
	}
	JOINT newVegas:Spine
	{
		OFFSET 0.000000 10.199997 -0.299500
		CHANNELS 3 Xrotation Yrotation Zrotation
		JOINT newVegas:Spine1
		{
			OFFSET 0.000000 11.900002 -1.516600
			CHANNELS 3 Xrotation Yrotation Zrotation
			JOINT newVegas:Spine2
			{
				OFFSET 0.000000 13.600006 -2.842500
				CHANNELS 3 Xrotation Yrotation Zrotation
				JOINT newVegas:Neck
				{
					OFFSET 0.000000 9.624100 -2.890100
					CHANNELS 3 Xrotation Yrotation Zrotation
					JOINT newVegas:Head
					{
						OFFSET 0.000000 14.068802 -1.351900
						CHANNELS 3 Xrotation Yrotation Zrotation
						JOINT newVegas:Hair_Back
						{
							OFFSET 0.000000 3.231903 -17.524799
							CHANNELS 3 Xrotation Yrotation Zrotation
							End Site
							{
								OFFSET 0.000000 19.849884 0.000000
							}
						}
						JOINT newVegas:Hair_Front
						{
							OFFSET 0.000000 31.260406 4.573800
							CHANNELS 3 Xrotation Yrotation Zrotation
							JOINT newVegas:Hair_Front1
							{
								OFFSET 0.000000 2.284103 11.993300
								CHANNELS 3 Xrotation Yrotation Zrotation
								JOINT newVegas:Hair_Front2
								{
									OFFSET 0.000000 2.284103 11.993300
									CHANNELS 3 Xrotation Yrotation Zrotation
									End Site
									{
										OFFSET 0.000000 12.208862 0.000000
									}
								}
							}
						}
						JOINT newVegas:Jowel
						{
							OFFSET 0.000000 -7.458206 6.864100
							CHANNELS 3 Xrotation Yrotation Zrotation
							End Site
							{
								OFFSET 0.000000 19.849884 0.000000
							}
						}
					}
				}
				JOINT newVegas:LeftShoulder
				{
					OFFSET 15.263000 10.923401 -0.547700
					CHANNELS 3 Xrotation Yrotation Zrotation
					JOINT newVegas:LeftArm
					{
						OFFSET 25.438599 -2.830597 -13.032500
						CHANNELS 3 Xrotation Yrotation Zrotation
						JOINT newVegas:LeftForeArm
						{
							OFFSET 29.960503 0.000000 0.000000
							CHANNELS 3 Xrotation Yrotation Zrotation
							JOINT newVegas:LeftHand
							{
								OFFSET 27.849251 0.000000 0.000000
								CHANNELS 3 Xrotation Yrotation Zrotation
								JOINT newVegas:LeftHandThumb1
								{
									OFFSET 4.487587 -3.305161 6.305391
									CHANNELS 3 Xrotation Yrotation Zrotation
									JOINT newVegas:LeftHandThumb2
									{
										OFFSET 5.480453 -3.164139 3.164143
										CHANNELS 3 Xrotation Yrotation Zrotation
										JOINT newVegas:LeftHandThumb3
										{
											OFFSET 5.159721 -2.978973 2.978967
											CHANNELS 3 Xrotation Yrotation Zrotation
											End Site
											{
												OFFSET 2.494507 5.926697 1.738678
											}
										}
									}
								}
								JOINT newVegas:LeftHandIndex1
								{
									OFFSET 18.578728 -0.527832 5.208049
									CHANNELS 3 Xrotation Yrotation Zrotation
									JOINT newVegas:LeftHandIndex2
									{
										OFFSET 3.192009 0.000000 0.000000
										CHANNELS 3 Xrotation Yrotation Zrotation
										JOINT newVegas:LeftHandIndex3
										{
											OFFSET 3.835129 0.000000 0.000000
											CHANNELS 3 Xrotation Yrotation Zrotation
											End Site
											{
												OFFSET -0.034599 3.816971 0.371180
											}
										}
									}
								}
								JOINT newVegas:LeftHandMiddle1
								{
									OFFSET 18.476105 0.000000 0.000000
									CHANNELS 3 Xrotation Yrotation Zrotation
									JOINT newVegas:LeftHandMiddle2
									{
										OFFSET 3.324875 0.000000 0.000000
										CHANNELS 3 Xrotation Yrotation Zrotation
										JOINT newVegas:LeftHandMiddle3
										{
											OFFSET 4.596550 0.000000 0.000000
											CHANNELS 3 Xrotation Yrotation Zrotation
											End Site
											{
												OFFSET 0.057701 4.578827 0.399218
											}
										}
									}
								}
								JOINT newVegas:LeftHandRing1
								{
									OFFSET 17.732719 0.121887 -4.201567
									CHANNELS 3 Xrotation Yrotation Zrotation
									JOINT newVegas:LeftHandRing2
									{
										OFFSET 2.733170 0.000000 0.000000
										CHANNELS 3 Xrotation Yrotation Zrotation
										JOINT newVegas:LeftHandRing3
										{
											OFFSET 3.178268 0.000000 0.000000
											CHANNELS 3 Xrotation Yrotation Zrotation
											End Site
											{
												OFFSET 0.119102 3.170624 0.185394
											}
										}
									}
								}
								JOINT newVegas:LeftHandPinky1
								{
									OFFSET 15.989624 -0.606689 -7.535461
									CHANNELS 3 Xrotation Yrotation Zrotation
									JOINT newVegas:LeftHandPinky2
									{
										OFFSET 2.538986 0.000000 0.000000
										CHANNELS 3 Xrotation Yrotation Zrotation
										JOINT newVegas:LeftHandPinky3
										{
											OFFSET 2.593102 0.000000 0.000000
											CHANNELS 3 Xrotation Yrotation Zrotation
											End Site
											{
												OFFSET -0.150902 2.584198 0.152708
											}
										}
									}
								}
							}
							JOINT newVegas:Left_Sleeve
							{
								OFFSET 0.267448 -0.649796 0.577675
								CHANNELS 3 Xrotation Yrotation Zrotation
								End Site
								{
									OFFSET 0.000000 15.991241 0.000000
								}
							}
							JOINT newVegas:Left_CapeC
							{
								OFFSET 15.715958 -8.608795 -6.935905
								CHANNELS 3 Xrotation Yrotation Zrotation
								JOINT newVegas:Left_CapeC1
								{
									OFFSET 0.000000 -8.688499 0.000000
									CHANNELS 3 Xrotation Yrotation Zrotation
									End Site
									{
										OFFSET 0.000000 8.688499 0.000000
									}
								}
							}
						}
						JOINT newVegas:Left_CapeB
						{
							OFFSET 26.118385 -8.608795 -7.079235
							CHANNELS 3 Xrotation Yrotation Zrotation
							JOINT newVegas:Left_CapeB1
							{
								OFFSET 0.000000 -8.688499 0.000000
								CHANNELS 3 Xrotation Yrotation Zrotation
								End Site
								{
									OFFSET 0.000000 8.688499 0.000000
								}
							}
						}
						JOINT newVegas:Left_CapeA
						{
							OFFSET 5.115639 -8.608795 -10.395809
							CHANNELS 3 Xrotation Yrotation Zrotation
							JOINT newVegas:Left_CapeA1
							{
								OFFSET 0.000000 -8.688499 0.000000
								CHANNELS 3 Xrotation Yrotation Zrotation
								End Site
								{
									OFFSET 0.000000 8.688499 0.000000
								}
							}
						}
					}
				}
				JOINT newVegas:RightShoulder
				{
					OFFSET -15.263000 10.923401 -0.547700
					CHANNELS 3 Xrotation Yrotation Zrotation
					JOINT newVegas:RightArm
					{
						OFFSET -25.438599 -2.830597 -13.032500
						CHANNELS 3 Xrotation Yrotation Zrotation
						JOINT newVegas:RightForeArm
						{
							OFFSET -29.960503 0.000000 0.000000
							CHANNELS 3 Xrotation Yrotation Zrotation
							JOINT newVegas:RightHand
							{
								OFFSET -27.849251 0.000000 0.000000
								CHANNELS 3 Xrotation Yrotation Zrotation
								JOINT newVegas:RightHandThumb1
								{
									OFFSET -4.487587 -3.305161 6.305391
									CHANNELS 3 Xrotation Yrotation Zrotation
									JOINT newVegas:RightHandThumb2
									{
										OFFSET -5.480453 -3.164139 3.164143
										CHANNELS 3 Xrotation Yrotation Zrotation
										JOINT newVegas:RightHandThumb3
										{
											OFFSET -5.159721 -2.978973 2.978967
											CHANNELS 3 Xrotation Yrotation Zrotation
											End Site
											{
												OFFSET -2.494507 5.926697 1.738678
											}
										}
									}
								}
								JOINT newVegas:RightHandIndex1
								{
									OFFSET -18.578728 -0.527832 5.208049
									CHANNELS 3 Xrotation Yrotation Zrotation
									JOINT newVegas:RightHandIndex2
									{
										OFFSET -3.192009 0.000000 0.000000
										CHANNELS 3 Xrotation Yrotation Zrotation
										JOINT newVegas:RightHandIndex3
										{
											OFFSET -3.835129 0.000000 0.000000
											CHANNELS 3 Xrotation Yrotation Zrotation
											End Site
											{
												OFFSET 0.034599 3.816971 0.371180
											}
										}
									}
								}
								JOINT newVegas:RightHandMiddle1
								{
									OFFSET -18.476105 0.000000 0.000000
									CHANNELS 3 Xrotation Yrotation Zrotation
									JOINT newVegas:RightHandMiddle2
									{
										OFFSET -3.324875 0.000000 0.000000
										CHANNELS 3 Xrotation Yrotation Zrotation
										JOINT newVegas:RightHandMiddle3
										{
											OFFSET -4.596550 0.000000 0.000000
											CHANNELS 3 Xrotation Yrotation Zrotation
											End Site
											{
												OFFSET -0.057701 4.578827 0.399218
											}
										}
									}
								}
								JOINT newVegas:RightHandRing1
								{
									OFFSET -17.732719 0.121887 -4.201567
									CHANNELS 3 Xrotation Yrotation Zrotation
									JOINT newVegas:RightHandRing2
									{
										OFFSET -2.733170 0.000000 0.000000
										CHANNELS 3 Xrotation Yrotation Zrotation
										JOINT newVegas:RightHandRing3
										{
											OFFSET -3.178268 0.000000 0.000000
											CHANNELS 3 Xrotation Yrotation Zrotation
											End Site
											{
												OFFSET -0.119102 3.170624 0.185394
											}
										}
									}
								}
								JOINT newVegas:RightHandPinky1
								{
									OFFSET -15.989624 -0.606689 -7.535461
									CHANNELS 3 Xrotation Yrotation Zrotation
									JOINT newVegas:RightHandPinky2
									{
										OFFSET -2.538986 0.000000 0.000000
										CHANNELS 3 Xrotation Yrotation Zrotation
										JOINT newVegas:RightHandPinky3
										{
											OFFSET -2.593102 0.000000 0.000000
											CHANNELS 3 Xrotation Yrotation Zrotation
											End Site
											{
												OFFSET 0.150902 2.584198 0.152708
											}
										}
									}
								}
							}
							JOINT newVegas:Right_CapeC
							{
								OFFSET -15.715958 -8.608795 -6.935905
								CHANNELS 3 Xrotation Yrotation Zrotation
								JOINT newVegas:Right_CapeC1
								{
									OFFSET 0.000000 -8.688499 0.000000
									CHANNELS 3 Xrotation Yrotation Zrotation
									End Site
									{
										OFFSET 0.000000 8.688499 0.000000
									}
								}
							}
							JOINT newVegas:Right_Sleeve
							{
								OFFSET -0.267448 -0.649994 0.577675
								CHANNELS 3 Xrotation Yrotation Zrotation
								End Site
								{
									OFFSET 0.000000 15.991302 0.000000
								}
							}
						}
						JOINT newVegas:Right_CapeA
						{
							OFFSET -5.115540 -8.608795 -10.395824
							CHANNELS 3 Xrotation Yrotation Zrotation
							JOINT newVegas:Right_CapeA1
							{
								OFFSET 0.000000 -8.688499 0.000000
								CHANNELS 3 Xrotation Yrotation Zrotation
								End Site
								{
									OFFSET 0.000000 8.688499 0.000000
								}
							}
						}
						JOINT newVegas:Right_CapeB
						{
							OFFSET -26.118187 -8.608795 -7.079266
							CHANNELS 3 Xrotation Yrotation Zrotation
							JOINT newVegas:Right_CapeB1
							{
								OFFSET 0.000000 -8.688499 0.000000
								CHANNELS 3 Xrotation Yrotation Zrotation
								End Site
								{
									OFFSET 0.000000 8.688499 0.000000
								}
							}
						}
					}
				}
				JOINT newVegas:Left_Collar
				{
					OFFSET 18.625099 8.655502 8.828100
					CHANNELS 3 Xrotation Yrotation Zrotation
					JOINT newVegas:Left_Collar1
					{
						OFFSET 14.783401 10.540405 -1.259500
						CHANNELS 3 Xrotation Yrotation Zrotation
						End Site
						{
							OFFSET 0.000000 18.199875 0.000000
						}
					}
				}
				JOINT newVegas:Collar_Back
				{
					OFFSET 0.000000 15.630707 -20.132601
					CHANNELS 3 Xrotation Yrotation Zrotation
					End Site
					{
						OFFSET 0.000000 22.523010 0.000000
					}
				}
				JOINT newVegas:Left_Peck
				{
					OFFSET 17.239599 -5.132599 25.482599
					CHANNELS 3 Xrotation Yrotation Zrotation
					End Site
					{
						OFFSET 0.000000 22.523010 0.000000
					}
				}
				JOINT newVegas:Right_Peck
				{
					OFFSET -17.239599 -5.132202 25.482599
					CHANNELS 3 Xrotation Yrotation Zrotation
					End Site
					{
						OFFSET 0.000000 22.523010 0.000000
					}
				}
				JOINT newVegas:Right_Collar
				{
					OFFSET -18.625099 8.655792 8.828100
					CHANNELS 3 Xrotation Yrotation Zrotation
					JOINT newVegas:Right_Collar1
					{
						OFFSET -14.783401 10.539993 -1.259500
						CHANNELS 3 Xrotation Yrotation Zrotation
						End Site
						{
							OFFSET 0.000000 18.199631 0.000000
						}
					}
				}
			}
		}
		JOINT newVegas:Belly
		{
			OFFSET 0.000000 -6.540398 9.014299
			CHANNELS 3 Xrotation Yrotation Zrotation
			End Site
			{
				OFFSET 0.000000 11.566666 0.000000
			}
		}
	}
	JOINT newVegas:ElvisFacialAnim_Joint
	{
		OFFSET 1.000000 -95.330101 -8.825800
		CHANNELS 3 Xrotation Yrotation Zrotation
		End Site
		{
			OFFSET 0.000000 35.315800 0.000000
		}
	}
}
MOTION
Frames: 4
Frame Time: 0.033333
3.070357 66.213272 45.676506 35.365910 3.909978 -6.169087 0.000001 0.000000 -0.000000 -116.399701 -7.263580 11.553629 72.392676 -27.154269 -5.237945 5.758988 -0.737328 -1.268335 0.000000 -0.000001 0.000000 0.000000 0.000001 0.000000 -9.250043 -14.366239 -18.601267 33.965831 -5.560416 3.954355 9.156864 -0.719168 18.720881 0.000000 0.000000 -0.000001 0.000003 0.000002 -0.000000 15.420250 9.159150 -22.021047 2.678436 3.345113 -5.227390 2.647442 3.318815 -5.290216 -1.577904 -0.859624 1.194572 -1.577907 -0.859615 1.194540 -0.000001 -0.000002 0.000001 -1.577890 -0.859647 1.194564 -1.577854 -0.859627 1.194562 -0.000000 0.000000 0.000001 -0.000001 -0.000002 0.000001 0.591677 -2.688227 -10.928570 -9.439508 -10.246464 -53.637322 -28.299593 -49.327254 -18.070761 -1.306236 -17.828792 -9.938276 4.766487 -0.870677 -14.442462 15.732306 12.674839 8.828573 -0.000000 -0.000001 -0.000004 -3.610952 -7.817611 -81.262667 0.005175 -4.388519 -67.459067 0.000001 -0.000001 -0.000001 -5.483684 2.419536 -86.651024 -0.068366 -4.897319 -76.605510 0.000005 -0.000000 -0.000000 -4.480810 3.914171 -90.412525 -1.097247 -0.675671 -62.310709 0.000002 -0.000001 -0.000000 -8.868635 8.263669 -85.753886 -0.047921 -0.066901 -74.105661 -0.000001 -0.000005 -0.000000 0.000000 0.000000 -0.000000 0.000000 0.000000 -0.000000 -0.000001 0.000000 -0.000000 0.000000 -0.000007 -0.000001 0.000000 -0.000008 -0.000000 0.000000 -0.000007 -0.000001 0.000000 -0.000008 -0.000002 2.538758 29.715882 -0.136328 -49.825817 30.433175 39.752978 97.691574 57.094589 -41.511141 6.796017 -36.754665 4.922418 24.918364 -21.323355 30.343051 9.041928 8.262088 -18.001804 0.000000 -0.000001 -0.000004 -0.070690 -3.035212 61.424212 0.006469 4.395135 66.609200 -0.000000 0.000001 0.000000 -1.235403 -0.119459 68.274277 -0.077309 4.902855 84.501885 0.000001 0.000001 -0.000000 0.883174 -4.613442 79.192943 -0.717760 1.136504 73.255766 -0.000001 -0.000001 -0.000000 -3.944521 0.099976 86.764788 -0.029798 0.060162 54.415144 0.000000 0.000002 -0.000001 0.000001 -0.000002 0.000001 -0.000000 -0.000000 0.000003 0.000001 -0.000002 0.000001 -0.000000 0.000000 0.000002 -0.000000 0.000000 0.000002 -0.000000 0.000000 0.000002 0.000000 0.000000 0.000004 0.000002 0.000000 0.000002 0.000002 0.000000 0.000002 0.000002 0.000000 0.000002 0.000002 0.000000 0.000002 0.000002 0.000000 0.000002 0.000002 0.000000 0.000002 0.000002 0.000000 0.000002 0.000002 0.000001 -0.000000 0.000001 0.000000 -0.000000 
3.136065 66.965118 43.969570 32.292284 -3.453578 -4.148738 0.000002 0.000000 -0.000000 -112.837000 -11.947948 16.869602 74.762759 -24.345405 -6.290569 3.432086 -0.493342 -1.739362 0.000000 0.000000 -0.000000 0.000000 -0.000001 0.000001 -10.153763 -6.261955 -20.788669 38.178131 -3.121558 4.510618 2.330068 -2.107635 20.623714 -0.000001 -0.000002 -0.000001 0.000001 -0.000000 -0.000001 14.124857 7.006960 -20.771377 1.998515 2.819164 -4.058016 1.984573 2.812690 -4.092757 -1.486992 -0.468978 0.869307 -1.487008 -0.468977 0.869302 -0.000001 0.000001 -0.000000 -1.487045 -0.468987 0.869307 -1.486839 -0.468972 0.869298 0.000006 0.000000 -0.000001 -0.000001 0.000001 -0.000001 0.603644 -5.628052 -4.243580 -14.015478 -7.270683 -54.359222 -40.444142 -58.530200 -32.991750 -1.757569 -13.067451 -10.443387 4.766487 -0.870674 -14.442457 15.732309 12.674841 8.828574 0.000002 -0.000006 -0.000005 -3.610959 -7.817611 -81.262661 0.005175 -4.388513 -67.459067 0.000001 -0.000004 0.000002 -5.483690 2.419542 -86.651024 -0.068368 -4.897313 -76.605510 -0.000003 0.000002 -0.000000 -4.480816 3.914176 -90.412525 -1.097245 -0.675668 -62.310716 0.000001 -0.000001 0.000001 -8.868641 8.263668 -85.753886 -0.047917 -0.066904 -74.105661 0.000001 -0.000005 0.000000 -0.000002 0.000001 -0.000000 -0.000002 0.000001 -0.000000 -0.000003 0.000001 0.000000 -0.000000 0.000001 -0.000000 -0.000000 0.000000 -0.000000 -0.000000 0.000001 -0.000000 0.000000 -0.000000 0.000000 2.179441 28.044974 1.145220 -43.716882 30.675476 36.482264 90.239728 55.222011 -44.086313 4.156606 -32.645661 4.255788 24.918369 -21.323355 30.343047 9.041930 8.262085 -18.001805 0.000001 -0.000003 0.000001 -0.070688 -3.035211 61.424212 0.006468 4.395134 66.609200 -0.000000 -0.000001 -0.000000 -1.235403 -0.119459 68.274284 -0.077309 4.902852 84.501891 -0.000000 -0.000002 0.000002 0.883176 -4.613442 79.192949 -0.717758 1.136502 73.255766 0.000001 0.000000 0.000005 -3.944520 0.099979 86.764781 -0.029802 0.060162 54.415147 0.000001 0.000002 0.000000 -0.000003 -0.000000 0.000000 -0.000003 -0.000001 0.000004 -0.000003 -0.000001 0.000001 -0.000001 0.000000 -0.000001 -0.000001 -0.000001 0.000001 -0.000001 0.000000 -0.000001 -0.000000 -0.000001 0.000003 -0.000001 0.000000 -0.000001 -0.000001 0.000000 -0.000001 -0.000001 0.000000 -0.000001 -0.000001 0.000000 -0.000001 -0.000001 0.000000 -0.000001 -0.000001 0.000000 -0.000001 -0.000001 0.000000 -0.000001 0.000002 -0.000001 -0.000001 0.000002 0.000000 -0.000000 
2.750529 67.797997 41.961224 28.035430 -13.327935 -3.158146 -0.000001 -0.000000 -0.000000 -106.100924 -19.097156 24.667595 78.444408 -21.471444 -7.184438 -0.277522 -0.004449 -3.963290 0.000000 -0.000001 0.000000 -0.000000 0.000001 0.000001 -10.419402 2.694389 -21.652154 42.015089 -1.039176 4.552127 -4.237872 -3.385968 21.704511 0.000001 -0.000001 -0.000002 0.000001 0.000001 -0.000001 13.513412 5.038368 -19.540799 1.466159 2.370430 -3.252629 1.448461 2.384806 -3.279282 -1.365975 -0.081476 0.552207 -1.365960 -0.081474 0.552194 -0.000000 0.000000 -0.000002 -1.365966 -0.081493 0.552213 -1.365945 -0.081475 0.552205 -0.000001 0.000000 -0.000002 -0.000000 0.000000 -0.000001 0.813422 -6.459733 5.410698 -20.456654 -0.982001 -56.033697 -67.653208 -60.047273 -64.112281 -2.155371 -9.751616 -15.819831 4.766486 -0.870676 -14.442459 15.732309 12.674843 8.828577 0.000002 0.000000 -0.000004 -3.610956 -7.817613 -81.262661 0.005172 -4.388514 -67.459067 0.000000 -0.000000 0.000000 -5.483691 2.419539 -86.651024 -0.068365 -4.897317 -76.605510 0.000000 0.000003 -0.000000 -4.480817 3.914177 -90.412525 -1.097244 -0.675673 -62.310716 0.000000 -0.000001 0.000000 -8.868647 8.263667 -85.753886 -0.047920 -0.066906 -74.105661 -0.000001 -0.000003 0.000000 -0.000001 0.000002 0.000001 -0.000001 0.000002 0.000001 -0.000002 0.000002 0.000000 0.000001 -0.000001 -0.000000 0.000001 -0.000002 -0.000001 0.000001 -0.000001 -0.000000 0.000001 0.000000 -0.000001 1.890500 26.535363 2.173629 -36.918323 30.938745 33.317881 84.651548 54.201806 -49.391403 2.050716 -31.549969 5.045161 24.918369 -21.323352 30.343051 9.041932 8.262092 -18.001805 0.000001 0.000002 0.000001 -0.070688 -3.035210 61.424212 0.006468 4.395134 66.609207 0.000000 0.000004 0.000002 -1.235405 -0.119460 68.274277 -0.077302 4.902851 84.501891 0.000001 0.000000 -0.000001 0.883175 -4.613441 79.192949 -0.717763 1.136504 73.255773 -0.000001 0.000001 -0.000000 -3.944529 0.099978 86.764781 -0.029804 0.060159 54.415147 -0.000001 0.000002 0.000001 -0.000000 0.000002 0.000003 -0.000000 -0.000000 0.000003 -0.000000 0.000001 0.000003 -0.000001 0.000003 -0.000003 -0.000000 0.000003 -0.000003 -0.000001 0.000003 -0.000003 -0.000000 0.000003 -0.000002 -0.000002 0.000000 -0.000000 -0.000002 0.000000 -0.000000 -0.000002 0.000000 -0.000000 -0.000002 0.000000 -0.000000 -0.000002 0.000000 -0.000000 -0.000002 0.000000 -0.000000 -0.000002 0.000000 -0.000000 -0.000002 0.000000 -0.000000 -0.000001 -0.000000 -0.000000 
2.178948 68.573433 39.380718 23.754829 -23.937849 -2.218915 -0.000003 -0.000000 -0.000000 -95.513529 -24.563814 34.532460 80.905435 -18.574141 -7.841683 -3.872230 0.811559 -7.832511 0.000000 -0.000001 -0.000000 -0.000000 -0.000001 0.000001 -13.609402 8.777098 -23.524611 47.531894 -0.410914 3.639979 -5.925152 -3.941806 23.549174 -0.000003 -0.000000 0.000000 0.000000 0.000000 -0.000001 13.253576 2.751406 -18.321617 0.852191 1.785539 -2.738219 0.828260 1.823799 -2.757666 -1.221858 0.288590 0.258985 -1.221882 0.288595 0.258987 -0.000002 -0.000000 0.000001 -1.221772 0.288586 0.258989 -1.221947 0.288584 0.258993 -0.000001 -0.000001 -0.000001 -0.000002 -0.000000 0.000001 0.697115 -5.712917 8.643090 -21.634097 6.152903 -50.698418 -85.963777 -57.769091 -86.551249 -2.164329 -8.775444 -19.694487 4.766485 -0.870674 -14.442459 15.732311 12.674838 8.828570 0.000002 -0.000001 0.000004 -3.610954 -7.817613 -81.262661 0.005174 -4.388515 -67.459074 -0.000003 0.000000 -0.000000 -5.483687 2.419538 -86.651024 -0.068369 -4.897319 -76.605503 -0.000002 -0.000001 0.000001 -4.480812 3.914173 -90.412519 -1.097243 -0.675671 -62.310709 -0.000001 0.000001 0.000001 -8.868636 8.263672 -85.753879 -0.047917 -0.066901 -74.105661 -0.000000 -0.000003 -0.000001 -0.000002 -0.000002 -0.000001 -0.000002 -0.000002 -0.000001 -0.000002 -0.000001 -0.000001 -0.000000 -0.000002 -0.000003 0.000000 -0.000002 -0.000004 -0.000000 -0.000002 -0.000003 0.000000 -0.000002 -0.000003 1.622716 24.955244 3.122618 -29.391663 31.024850 30.114191 81.983744 53.190969 -57.903728 1.174510 -31.952639 6.147991 24.918364 -21.323354 30.343054 9.041932 8.262087 -18.001812 -0.000001 -0.000001 0.000001 -0.070694 -3.035211 61.424219 0.006468 4.395133 66.609200 -0.000001 -0.000001 0.000000 -1.235405 -0.119460 68.274284 -0.077309 4.902855 84.501891 0.000000 -0.000001 0.000001 0.883171 -4.613441 79.192949 -0.717759 1.136504 73.255773 -0.000002 0.000001 0.000001 -3.944526 0.099979 86.764788 -0.029804 0.060161 54.415144 -0.000002 0.000003 0.000000 0.000003 0.000004 0.000003 0.000001 0.000002 0.000009 0.000003 0.000004 0.000004 0.000001 0.000000 -0.000002 0.000001 0.000001 -0.000003 0.000001 0.000000 -0.000002 0.000001 0.000001 -0.000002 0.000002 0.000000 0.000002 0.000002 0.000000 0.000002 0.000002 0.000000 0.000002 0.000002 0.000000 0.000002 0.000002 0.000000 0.000002 0.000002 0.000000 0.000002 0.000002 0.000000 0.000002 0.000000 -0.000001 -0.000001 -0.000003 -0.000000 -0.000000 
